# xmcd
#
# Track frame offsets: 
#        182
#        13095
#        34962
#        54020
#        66397
#        80757
#        98362
#        116272
#        131017
#        145610
#        160767
#        176350
#        193230
#        204087
#        229830
#
# Disc length: 3327 seconds
#
# Revision: 1
# Processed by: cddbd v1.5.2PL0 Copyright (c) Steve Scherf et al.
# Submitted via: ExactAudioCopy v1.3
#
DISCID=be0cfd0f
DTITLE=Stan Webb's Chicken Shack - Webb's Blues
DYEAR=1994
DGENRE=Blues
TTITLE0=I'm Torn Down
TTITLE1=A Blues Song
TTITLE2=Every Little Bit Of My Heart
TTITLE3=Sweet Nothin's
TTITLE4=Crying Again
TTITLE5=Who Cares
TTITLE6=Hold On
TTITLE7=Webb's Blues (instrumental)
TTITLE8=Homework
TTITLE9=Evil
TTITLE10=Set Me Free
TTITLE11=Every Day I Have The Blues
TTITLE12=Time Goes By
TTITLE13=I'd Rather Go Blind
TTITLE14=Baby What You Want Me To Do
EXTD=ARD Indigo Recording Ltd. IGOCD 2013
EXTT0=
EXTT1=
EXTT2=
EXTT3=
EXTT4=
EXTT5=
EXTT6=
EXTT7=
EXTT8=
EXTT9=
EXTT10=
EXTT11=
EXTT12=
EXTT13=
EXTT14=
PLAYORDER=
